<svg xmlns="http://www.w3.org/2000/svg" xmlns:xlink="http://www.w3.org/1999/xlink" width="1080" zoomAndPan="magnify" viewBox="0 0 810 809.999993" height="1080" preserveAspectRatio="xMidYMid meet" version="1.0"><defs><clipPath id="1a77787958"><path d="M 41 309 L 780.480469 309 L 780.480469 472 L 41 472 Z M 41 309 " clip-rule="nonzero"/></clipPath><clipPath id="b2531982b6"><path d="M 29.730469 312 L 362 312 L 362 770 L 29.730469 770 Z M 29.730469 312 " clip-rule="nonzero"/></clipPath><clipPath id="06955c4d19"><path d="M 457 313 L 780.480469 313 L 780.480469 765 L 457 765 Z M 457 313 " clip-rule="nonzero"/></clipPath><clipPath id="a66418917b"><path d="M 47 424.441406 L 768 424.441406 L 768 782.292969 L 47 782.292969 Z M 47 424.441406 " clip-rule="nonzero"/></clipPath><clipPath id="b03f8df7cc"><path d="M 47 442 L 768 442 L 768 782.292969 L 47 782.292969 Z M 47 442 " clip-rule="nonzero"/></clipPath><clipPath id="3ffb7e8eb9"><path d="M 192.164062 204.421875 L 211.394531 204.421875 L 211.394531 223.652344 L 192.164062 223.652344 Z M 192.164062 204.421875 " clip-rule="nonzero"/></clipPath><clipPath id="c5bf336f67"><path d="M 201.777344 204.421875 C 196.46875 204.421875 192.164062 208.726562 192.164062 214.035156 C 192.164062 219.347656 196.46875 223.652344 201.777344 223.652344 C 207.089844 223.652344 211.394531 219.347656 211.394531 214.035156 C 211.394531 208.726562 207.089844 204.421875 201.777344 204.421875 Z M 201.777344 204.421875 " clip-rule="nonzero"/></clipPath></defs><rect x="-81" width="972" fill="#ffffff" y="-80.999999" height="971.999992" fill-opacity="1"/><rect x="-81" width="972" fill="#ffffff" y="-80.999999" height="971.999992" fill-opacity="1"/><path fill="#fa9a23" d="M 773.117188 291.839844 C 770.886719 289.511719 768.164062 287.109375 764.898438 284.648438 L 743.722656 268.609375 L 449.761719 46.203125 C 425.207031 27.628906 385.042969 27.628906 360.480469 46.203125 L 66.527344 268.609375 L 45.34375 284.648438 C 42.082031 287.109375 39.355469 289.511719 37.136719 291.839844 C 33.984375 297.101562 31.738281 302.941406 30.605469 309.183594 C 33.128906 314.886719 42.023438 318.40625 56.871094 318.40625 L 753.378906 318.40625 C 768.234375 318.40625 777.113281 314.886719 779.644531 309.183594 C 778.515625 302.941406 776.261719 297.101562 773.117188 291.839844 " fill-opacity="1" fill-rule="nonzero"/><g clip-path="url(#1a77787958)"><path fill="#fa9a23" d="M 780.28125 313.742188 C 780.140625 312.195312 779.910156 310.683594 779.644531 309.183594 C 777.113281 314.886719 768.234375 318.40625 753.378906 318.40625 L 56.871094 318.40625 C 50.5 318.40625 45.226562 317.765625 41.085938 316.566406 L 412.742188 471.808594 L 780.28125 313.742188 " fill-opacity="1" fill-rule="nonzero"/></g><path fill="#2d5871" d="M 690.800781 554.34375 C 690.800781 571.605469 676.804688 585.617188 659.527344 585.617188 L 138.148438 585.617188 C 120.863281 585.617188 106.863281 571.605469 106.863281 554.34375 L 106.863281 124.34375 C 106.863281 107.070312 120.863281 93.066406 138.148438 93.066406 L 659.527344 93.066406 C 676.804688 93.066406 690.800781 107.070312 690.800781 124.34375 L 690.800781 554.34375 " fill-opacity="1" fill-rule="nonzero"/><path fill="#ffffff" d="M 443.03125 278.949219 C 438.914062 277.9375 433.257812 276.898438 427.109375 276.898438 C 393.210938 276.898438 366.507812 310.265625 366.507812 349.792969 C 366.507812 369.304688 375.242188 381.617188 392.179688 381.617188 C 411.191406 381.617188 431.207031 357.5 435.828125 327.726562 Z M 488.71875 490.960938 C 457.910156 504.824219 431.207031 509.449219 394.238281 509.449219 C 308.992188 509.449219 234.027344 448.347656 234.027344 347.75 C 234.027344 243.015625 310.542969 152.167969 426.070312 152.167969 C 516.960938 152.167969 581.660156 214.277344 581.660156 300.511719 C 581.660156 375.976562 539.554688 423.199219 484.101562 423.199219 C 459.960938 423.199219 442.511719 410.371094 439.9375 383.675781 L 438.914062 383.675781 C 422.480469 409.339844 399.878906 423.199219 372.148438 423.199219 C 339.296875 423.199219 314.640625 398.050781 314.640625 355.953125 C 314.640625 292.8125 361.378906 236.34375 435.308594 236.34375 C 457.910156 236.34375 483.582031 241.992188 496.417969 248.675781 L 481.015625 344.140625 C 475.882812 374.441406 479.480469 388.296875 493.851562 388.808594 C 515.941406 389.835938 543.664062 361.609375 543.664062 302.054688 C 543.664062 234.8125 500.527344 183.484375 420.949219 183.484375 C 341.863281 183.484375 273.566406 244.566406 273.566406 343.128906 C 273.566406 429.355469 328 477.621094 404.507812 477.621094 C 430.699219 477.621094 458.929688 471.972656 479.480469 461.707031 L 488.71875 490.960938 " fill-opacity="1" fill-rule="nonzero"/><g clip-path="url(#b2531982b6)"><path fill="#fdc00f" d="M 41.085938 316.566406 C 38.867188 315.921875 36.976562 315.136719 35.40625 314.195312 L 30.199219 312.023438 C 29.9375 314.125 29.730469 316.242188 29.730469 318.40625 L 29.730469 730.179688 C 29.730469 745.742188 36.683594 759.734375 47.601562 769.308594 L 361.480469 450.398438 L 41.085938 316.566406 " fill-opacity="1" fill-rule="nonzero"/></g><g clip-path="url(#06955c4d19)"><path fill="#fdc00f" d="M 780.511719 730.179688 L 780.511719 318.40625 C 780.511719 316.835938 780.421875 315.273438 780.28125 313.742188 L 457.171875 452.707031 L 767.246094 764.730469 C 775.464844 755.507812 780.511719 743.421875 780.511719 730.179688 " fill-opacity="1" fill-rule="nonzero"/></g><g clip-path="url(#a66418917b)"><path fill="#fa9a23" d="M 457.171875 452.707031 L 444.695312 440.175781 C 424.5 419.832031 391.5 419.902344 371.386719 440.347656 L 361.480469 450.398438 L 47.601562 769.308594 C 56.792969 777.367188 68.765625 782.292969 81.871094 782.292969 L 728.367188 782.292969 C 743.800781 782.292969 757.699219 775.457031 767.246094 764.730469 L 457.171875 452.707031 " fill-opacity="1" fill-rule="nonzero"/></g><g clip-path="url(#b03f8df7cc)"><path fill="#fdc00f" d="M 457.171875 468.738281 L 444.695312 456.796875 C 424.5 437.445312 391.5 437.535156 371.386719 456.964844 L 361.480469 466.539062 L 47.601562 769.945312 C 56.792969 777.597656 68.765625 782.292969 81.871094 782.292969 L 728.367188 782.292969 C 743.800781 782.292969 757.699219 775.789062 767.246094 765.578125 L 457.171875 468.738281 " fill-opacity="1" fill-rule="nonzero"/></g><g clip-path="url(#3ffb7e8eb9)"><g clip-path="url(#c5bf336f67)"><path fill="#2d5871" d="M 192.164062 204.421875 L 211.394531 204.421875 L 211.394531 223.652344 L 192.164062 223.652344 Z M 192.164062 204.421875 " fill-opacity="1" fill-rule="nonzero"/></g></g></svg>